<svg width="537" height="634" viewBox="0 0 537 634" fill="none" xmlns="http://www.w3.org/2000/svg">
<path d="M6.00002 253.5C11.5 181.5 38.5 149 59 116.5C51.5 112.833 38.5 101.7 46.5 86.5001C54.5 71.3001 76.5 75.8334 86.5 80.0001L480 109C494.167 112.667 515 109 520 125C526.264 145.044 500.333 146.333 490.5 150.5C506.5 178 534.6 254.2 531 301C527.4 347.8 482.667 403.833 462 426.5C475.333 442.5 504.1 468.8 490.5 480C476.9 491.2 462 480 435 464C429.5 480.667 415.1 518.8 401.5 538C387.9 557.2 346.833 576.667 328 584C323.333 597.833 310 626.1 294 628.5C278 630.9 283 599.833 287.5 584H210C211 594.167 208.2 615.4 189 619C169.8 622.6 164.667 589.167 164.5 572C152.667 564 125 544.1 109 528.5C93 512.9 79 471 73 437C49.5 447 34.4 459.7 22 442.5C9.60002 425.3 47.6667 409.333 64.5 402V386C64.5 386 0.500008 325.5 6.00002 253.5Z" fill="white" stroke="black" stroke-width="10"/>
<path d="M282.751 176.762C191.545 168.209 106.644 110.016 89 77.1412C98.3214 49.0814 150.121 -4.34854 282.751 6.4105C415.38 17.1695 468.179 76.6431 478 105.035C446.374 130.936 392.11 187.018 282.751 176.762Z" fill="#1E9DE1" stroke="black" stroke-width="10" stroke-linecap="square"/>
<path d="M235.236 235.315C233.67 234.772 231.962 235.601 231.419 237.167C230.876 238.732 231.705 240.441 233.271 240.984L235.236 235.315ZM234.253 238.149L233.271 240.984C234.437 241.388 236.27 242.148 237.883 243.068C238.689 243.527 239.365 243.985 239.858 244.409C240.393 244.869 240.496 245.106 240.482 245.07L243.273 243.971L246.065 242.872C245.559 241.588 244.614 240.585 243.771 239.86C242.886 239.099 241.856 238.427 240.855 237.856C238.853 236.714 236.667 235.811 235.236 235.315L234.253 238.149ZM243.273 243.971L240.482 245.07C240.685 245.587 240.755 246.547 240.562 247.846C240.38 249.07 240.024 250.213 239.779 250.827L242.565 251.94L245.351 253.053C245.751 252.051 246.24 250.458 246.497 248.726C246.743 247.069 246.844 244.852 246.065 242.872L243.273 243.971Z" fill="black"/>
<path d="M266.099 231.946C266.604 234.647 267.128 237.19 265.446 239.281" stroke="black" stroke-width="6" stroke-linecap="round"/>
<path d="M241.335 269.951C243.981 270.696 246.492 271.354 247.621 273.788" stroke="black" stroke-width="6" stroke-linecap="round"/>
<path d="M299.561 271.586C297.009 272.607 294.582 273.528 293.718 276.068" stroke="black" stroke-width="6" stroke-linecap="round"/>
<path d="M281.632 238.501C279.963 240.685 278.351 242.719 278.91 245.344" stroke="black" stroke-width="6" stroke-linecap="round"/>
<path d="M308.682 242.258C305.019 243.94 299.222 249.079 300.508 251.434" stroke="black" stroke-width="6" stroke-linecap="round"/>
<path d="M263.847 255.338L279.508 254.221" stroke="black" stroke-width="6" stroke-linecap="round"/>
<path d="M262.419 269.83C262.419 269.83 266.029 268.888 268.388 268.9C272.293 268.921 278.02 271.588 278.02 271.588" stroke="black" stroke-width="6" stroke-linecap="round"/>
<path d="M291.137 286.39C293.416 286.725 297.554 288.28 299.734 292.573C301.451 295.953 300.718 300.844 297.646 304.495C295.978 306.478 293.665 308.079 290.694 309.068L290.73 309.304C291.654 315.714 291.701 325.137 288.767 333.31C287.24 337.564 284.856 341.615 281.236 344.674C277.578 347.765 272.83 349.698 266.873 349.952C260.809 350.211 256.013 348.394 252.428 345.078C248.922 341.834 246.812 337.377 245.587 332.716C243.264 323.875 243.889 313.421 245.189 306.137C241.013 304.618 238.471 302.002 237.461 298.635C236.198 294.427 237.692 290.092 239.179 287.516L239.26 287.385C240.122 286.052 241.886 285.616 243.276 286.417C244.711 287.246 245.204 289.08 244.376 290.515L244.177 290.875C243.212 292.712 242.655 295.069 243.207 296.91C243.669 298.448 245.253 300.691 251.305 301.409C256.942 302.078 260.556 299.933 262.964 297.006C264.934 294.61 266.114 291.637 266.69 289.149C266.799 288.318 266.938 287.543 267.096 286.848L273.002 287.856C272.919 288.572 272.788 289.356 272.607 290.184C272.312 292.651 272.384 295.628 273.265 298.175C273.819 299.776 274.657 301.113 275.834 302.098C276.992 303.067 278.65 303.84 281.1 304.057C287.849 304.657 291.377 302.626 293.055 300.632C294.894 298.446 294.804 296.115 294.385 295.289C293.361 293.275 291.296 292.489 290.349 292.337L290.176 292.315L290.022 292.298C288.451 292.077 287.311 290.66 287.453 289.061C287.6 287.411 289.057 286.192 290.707 286.339L291.137 286.39ZM267.598 300.817C264.1 305.07 258.689 308.176 251.057 307.415C249.872 314.196 249.39 323.58 251.391 331.191C252.444 335.199 254.122 338.471 256.502 340.674C258.806 342.805 261.999 344.154 266.617 343.957C271.342 343.755 274.792 342.264 277.363 340.092C279.97 337.889 281.844 334.837 283.119 331.284C285.615 324.331 285.628 315.974 284.794 310.179L284.786 310.128C283.464 310.193 282.058 310.166 280.569 310.034C277.043 309.72 274.188 308.544 271.984 306.699C269.941 304.99 268.605 302.834 267.764 300.608C267.709 300.677 267.654 300.748 267.598 300.817Z" fill="black"/>
<path d="M250.41 304.842L266.425 299.741L276.308 307.145L287.264 308.119L289.101 321.334L280.545 344.166L260.724 346.921L253.242 340.734L247.454 321.145L250.41 304.842Z" fill="black" stroke="black"/>
<path d="M257.083 314.471L254.538 309.225L266.978 304.81L271.106 309.193L280.934 311.572L279.495 316.464L278.676 314.383L276.009 316.154L273.198 313.896L269.534 315.578L266.358 311.782L262.65 313.962L259.884 311.207L257.083 314.471Z" fill="white"/>
<path d="M257.864 322.903C258.077 320.512 260.299 318.1 262.878 317.325C266.818 318.178 264.21 322.664 265.335 323.567C266.459 324.47 269.817 323.966 270.315 324.01C270.216 319.484 271.537 319.3 272.839 318.211C274.14 317.122 276.388 319.698 277.1 321.1C277.764 321.159 280.154 320.152 281.084 321.454C283.762 325.206 279.833 329.876 278.206 331.237C276.905 332.326 272.108 330.193 269.872 328.991L266.386 328.681C265.423 330.101 262.809 332.78 260.055 332.133C256.613 331.325 257.599 325.891 257.864 322.903Z" fill="#FDBCCE"/>
<path d="M259.03 337.735C256.64 337.523 257.857 339.639 258.765 340.723C259.717 341.31 262.317 342.545 265.106 342.793C267.895 343.041 273.507 340.528 275.964 339.241C275.51 338.699 274.005 337.561 271.614 337.348C268.626 337.083 266.999 338.444 265.505 338.311L259.03 337.735Z" fill="white"/>
<path d="M254.858 356.439C255.529 360.18 258.006 368.264 262.804 368.691C271.27 369.444 272.941 367.585 277.734 364.497" stroke="black" stroke-width="6"/>
<ellipse cx="130" cy="272.5" rx="43" ry="34.5" fill="#F2BFC5"/>
<path d="M121 265L114 277" stroke="black" stroke-width="6" stroke-linecap="round"/>
<path d="M133 267L126 279" stroke="black" stroke-width="6" stroke-linecap="round"/>
<path d="M145 269L138 282" stroke="black" stroke-width="6" stroke-linecap="round"/>
<ellipse cx="402" cy="297.5" rx="43" ry="34.5" fill="#F2BFC5"/>
<path d="M393 289L386 301" stroke="black" stroke-width="6" stroke-linecap="round"/>
<path d="M405 291L398 303" stroke="black" stroke-width="6" stroke-linecap="round"/>
<path d="M417 293L410 306" stroke="black" stroke-width="6" stroke-linecap="round"/>
</svg>
