<svg width="46" height="42" viewBox="0 0 46 42" fill="none" xmlns="http://www.w3.org/2000/svg">
<path d="M2.12721 17.9966C3.09998 7.05618 14.1801 0.997338 23.6428 1.83874L23.6429 1.83875C33.1055 2.68015 44.0623 3.6544 44.0948 20.2223C44.1028 24.2534 35.6276 42.0582 20.3215 39.1914C5.01537 36.3245 1.28583 27.4594 2.12721 17.9966Z" fill="black"/>
<path d="M13.5315 15.474C12.7259 10.985 20.0357 8.18811 23.7913 7.35078C27.0978 6.29445 31.2618 8.01519 33.7187 14.2572C33.0878 15.707 31.4829 19.0781 30.1105 20.964C28.3949 23.3213 19.7512 24.5606 18.2571 24.4277C16.763 24.2949 14.5385 21.0852 13.5315 15.474Z" fill="white"/>
<path d="M18.0862 30.4591C19.3552 31.2412 25.3353 33.6135 29.7181 29.4855" stroke="white" stroke-width="2" stroke-linecap="round"/>
</svg>
