<svg width="66" height="64" viewBox="0 0 66 64" fill="none" xmlns="http://www.w3.org/2000/svg">
<path d="M0.815859 30.0828C-1.27747 8.31222 20.528 1.47402 31.6924 0.776245C40.0657 0.776245 48.9623 1.29958 53.149 6.00956C61.5655 15.4781 59.429 12.8129 63.0923 17.5229C67.2789 22.9057 65.7089 34.2695 63.0923 48.9227C60.4756 63.576 37.9724 64.2738 26.9824 63.576C4.47916 58.3427 2.90918 51.8534 0.815859 30.0828Z" fill="black"/>
<path d="M24.7487 31.1295C22.6553 26.5242 33.2964 19.4417 38.8786 16.4762C42.3675 17.6973 49.1358 20.8722 48.2985 23.8028C47.4611 26.7335 38.8785 35.4906 34.6919 39.5028C32.2497 38.6306 26.842 35.7348 24.7487 31.1295Z" fill="white"/>
<path d="M25.7954 50.4928C26.4932 51.5395 28.7261 53.5281 32.0754 53.1095C35.4247 52.6908 38.7043 51.1906 39.9254 50.4928" stroke="white" stroke-width="3" stroke-linecap="round"/>
</svg>
