<svg width="506" height="646" viewBox="0 0 506 646" fill="none" xmlns="http://www.w3.org/2000/svg">
<path d="M441.307 445.58C464.521 404.378 501 386.92 501 297.883C498.167 252.922 480 98.9999 257 84.5C69.3771 72.3003 17.6191 187.924 6.17858 264.886C-1.78045 324.384 32.3596 382.031 54.8752 404.204C40.5629 405.426 13.7187 411.955 20.8399 428.296C27.9611 444.637 59.4133 446.627 74.2492 445.58C74.2492 458.673 76.7626 491.46 86.8161 517.857C96.8696 544.254 111.95 558.884 118.233 562.9C110.903 571.803 100.64 591.811 118.233 600.61C135.827 609.409 156.632 589.611 164.836 578.612C172.166 584.722 191.75 597.677 211.438 600.61C231.126 603.543 263.625 601.832 277.414 600.61C281.778 613.354 295.427 639.262 315.115 640.938C339.725 643.033 327.158 591.182 345.485 596.943C360.146 601.552 389.294 576.168 402.036 562.9H449.685C468.012 562.9 490.004 538.283 477.961 517.857C468.326 501.516 436.246 511.048 421.41 517.857L441.307 445.58Z" fill="white" stroke="black" stroke-width="10" stroke-linecap="round"/>
<path d="M241 334L226.5 347.5V364.5L236.5 378L246 375.5L258.5 351.5L248.5 344.5L241 334Z" fill="white"/>
<path d="M238.599 328.53C239.614 328.083 240.834 327.846 242.139 328.112C243.422 328.374 244.392 329.042 245.074 329.711C246.291 330.908 247.02 332.552 247.486 333.708C247.975 334.922 248.505 336.507 248.944 337.712C249.983 340.566 250.936 342.458 252.083 343.389C252.531 343.752 253.005 343.961 253.662 343.996C254.39 344.034 255.583 343.869 257.403 343.024L258.671 342.43C261.516 341.088 263.567 340.041 265.029 339.215C265.461 338.971 265.825 338.754 266.129 338.565C265.897 337.283 266.294 335.913 267.309 334.949C268.91 333.427 271.443 333.493 272.964 335.094L273.171 335.304C273.261 335.395 273.403 335.539 273.548 335.701C273.812 335.994 274.327 336.599 274.664 337.465C275.053 338.465 275.128 339.61 274.763 340.754C274.437 341.775 273.841 342.547 273.32 343.091C272.318 344.137 270.82 345.131 268.965 346.179C267.642 346.927 265.983 347.783 263.921 348.784C263.901 348.885 263.878 348.987 263.85 349.088C262.449 354.046 260.054 361.788 256.403 368.298C252.931 374.489 247.34 381.287 239.015 380.992C230.66 380.695 225.833 373.738 223.31 367.376C221.122 361.861 220.114 355.55 220.012 350.547C218.96 350.364 217.942 350.025 216.969 349.533C213.969 348.014 211.936 345.322 210.56 343.05C209.529 341.349 208.645 339.481 207.987 338.079L207.407 336.854L207.321 336.667C206.489 334.721 207.322 332.444 209.244 331.504C211.167 330.565 213.475 331.308 214.499 333.16L214.594 333.342L215.255 334.729C215.908 336.118 216.559 337.513 217.403 338.906C218.525 340.759 219.596 341.896 220.581 342.395C221.27 342.743 222.34 343.018 224.378 341.963C226.627 340.8 229.792 338.116 233.957 332.668L234.461 332.029C235.658 330.554 237.015 329.227 238.599 328.53ZM240.312 337.528C235.854 343.358 231.831 347.116 228.053 349.07C228.038 349.078 228.022 349.085 228.007 349.092C227.919 353.307 228.737 359.361 230.746 364.426C232.991 370.084 235.981 372.879 239.298 372.997C242.645 373.115 246.088 370.335 249.425 364.385C251.599 360.509 253.313 356.001 254.62 351.976C254.156 352.005 253.696 352.008 253.24 351.984C250.774 351.853 248.706 350.951 247.041 349.6C243.964 347.102 242.408 343.145 241.426 340.45C240.99 339.251 240.676 338.317 240.361 337.465L240.312 337.528Z" fill="black"/>
<path d="M231 398L252 401" stroke="black" stroke-width="8" stroke-linecap="round"/>
<ellipse cx="85.0522" cy="307.576" rx="43.4365" ry="39.7732" fill="#FFE7D4"/>
<path d="M75.109 297.109L62.5491 314.903" stroke="black" stroke-width="5" stroke-linecap="round"/>
<path d="M91.8556 299.203L79.2957 315.949" stroke="black" stroke-width="5" stroke-linecap="round"/>
<path d="M108.602 300.249L96.0422 318.043" stroke="black" stroke-width="5" stroke-linecap="round"/>
<ellipse cx="398.004" cy="340.023" rx="43.4365" ry="39.7732" fill="#FFE7D4"/>
<path d="M388.061 329.556L375.501 347.349" stroke="black" stroke-width="5" stroke-linecap="round"/>
<path d="M404.808 331.649L392.248 348.396" stroke="black" stroke-width="5" stroke-linecap="round"/>
<path d="M421.554 332.696L408.994 350.489" stroke="black" stroke-width="5" stroke-linecap="round"/>
<circle cx="241.5" cy="327.5" r="7.5" fill="black"/>
<path d="M179.497 5.00919C153.944 4.17119 128.008 60.8758 118.233 89.3328L110.903 107.664C121.435 120.609 150.9 147.4 184.5 151C218.1 154.6 254.958 148.167 273.5 139C287.291 155.167 333.7 177.8 374.5 183C415.3 188.2 445.813 180.683 455.969 176.275C455.969 176.275 458.412 155.325 450.209 123.377C442.006 91.4278 447.067 50.0516 411.985 44.2904C394.976 41.4973 322.446 89.3328 322.446 89.3328C322.446 89.3328 299.643 69.3432 282.127 66.2879C265.369 63.3649 248.615 73.6203 239.19 73.6203L239.151 73.5422C229.004 53.4198 205.017 5.8461 179.497 5.00919Z" fill="#FF8B0F" stroke="black" stroke-width="10" stroke-linecap="round"/>
</svg>
