<svg width="314" height="119" viewBox="0 0 314 119" fill="none" xmlns="http://www.w3.org/2000/svg">
<path d="M258.158 39.8018V89.4092H309V114H233.653V39.8018H258.158ZM29.5059 38.3428V63.1465H44.6143V38.3428H69.1191V112.541H44.6143V87.7373H29.5059V112.541H5V38.3428H29.5059ZM136.594 31.0479V55.6387H120.844V112.541H96.3389V55.6387H80.5908V31.0479H136.594ZM214.14 25.4922L221.794 100.452L222.301 105.42L217.333 105.934L202.903 107.424L197.924 107.938L197.415 102.958L194.718 76.5508L190.614 81.8496L187.311 86.1133L183.31 82.498L172.154 72.418V106.705H147.648V17.1855L156 24.7324L184.131 50.1504L205.213 22.9375L212.87 13.0547L214.14 25.4922Z" fill="#FFEA00" stroke="black" stroke-width="10"/>
</svg>
