<svg width="198" height="112" viewBox="0 0 198 112" fill="none" xmlns="http://www.w3.org/2000/svg">
<path d="M129.199 8.08887C143.321 4.5227 162.109 4.97526 176.694 5.83789H176.702L176.71 5.83887L179.634 6.02051L179.696 6.02441L179.759 6.0293L180.016 6.05176L180.086 6.05859L180.156 6.06641C185.252 6.65732 189.079 11.022 188.999 16.1484L188.979 16.6465C188.632 21.9856 184.159 26.0737 178.863 25.999L178.794 25.998L178.725 25.9961L178.468 25.9854L178.418 25.9824L178.369 25.9795L175.442 25.7979V25.7988C160.995 24.9505 145.401 24.7662 134.667 27.3398L133.644 27.5977C127.757 29.1544 125.841 31.018 125.385 31.7969L125.386 31.7979C125.343 31.8706 124.104 33.6709 127.325 39.7969L127.596 40.2959C128.783 42.4297 129.638 43.1203 129.891 43.292H129.892C130.007 43.3704 130.057 43.3841 130.077 43.3896C130.109 43.3983 130.231 43.4289 130.521 43.4238L130.807 43.4092C131.53 43.3518 132.66 43.1163 134.468 42.502L135.304 42.2109C137.213 41.5263 138.907 40.8018 141.67 39.7637L142.703 39.3809C148.016 37.4428 155.473 35.2606 163.693 37.1426L164.549 37.3525C173.061 39.5788 180.387 45.69 186.844 55.6963L187.486 56.709L187.504 56.7383L187.521 56.7666L187.992 57.5449L188.011 57.5752L188.027 57.6045C190.661 62.0986 192.201 66.8755 192.273 71.8047L192.275 72.3008C192.249 77.2514 190.732 81.7344 188.285 85.582L188.038 85.9648C183.072 93.4969 174.615 98.4843 166.095 101.621L165.271 101.919C156.492 105.028 146.42 106.683 136.645 106.774L135.699 106.778C126.011 106.769 115.985 105.212 107.545 101.418L107.523 101.408L107.503 101.398L106.771 101.062L106.691 101.024L106.612 100.985L106.382 100.869L106.325 100.84L106.27 100.811C101.605 98.3081 99.6723 92.5646 101.959 87.7266L102.184 87.2803C104.522 82.9029 109.716 80.928 114.346 82.5762L114.807 82.7529L114.861 82.7754L114.914 82.7988L115.149 82.9023L115.191 82.9209L115.231 82.9395L115.754 83.1807L116.239 83.3936C121.305 85.5558 128.133 86.7708 135.719 86.7783L136.471 86.7754C144.243 86.7015 152.096 85.3687 158.593 83.0674L159.237 82.834C165.818 80.4044 169.72 77.4137 171.341 74.9561L171.588 74.5547C172.039 73.7681 172.23 73.0789 172.269 72.4238L172.275 72.0986C172.263 71.2391 171.997 69.8071 170.772 67.7188V67.7178L170.514 67.29V67.291C165.345 58.9994 161.399 57.1356 159.229 56.6387V56.6377C156.834 56.0898 154.049 56.5526 149.614 58.1514L148.705 58.4863C146.931 59.1528 144.252 60.2461 141.894 61.0928L140.905 61.4395C138.3 62.3252 135.074 63.2332 131.573 63.3975L130.869 63.4199C126.981 63.4876 122.892 62.5902 119.038 60.0908L118.665 59.8438C115.1 57.4255 112.328 54.0005 110.097 49.9805L110.083 49.957L110.07 49.9336L109.68 49.2119L109.667 49.1885L109.654 49.1641C104.789 39.9359 103.149 30.2036 108.123 21.7002L108.339 21.3389C112.934 13.8115 121.237 10.1905 128.53 8.26172L129.199 8.08887ZM99.5 5C105.023 5 109.5 9.47715 109.5 15C109.5 20.5228 105.023 25 99.5 25H71.6006C75.4681 36.4787 79.0949 49.923 80.4668 61.9961L80.6367 63.5928C81.3971 71.3436 81.2918 79.5436 78.8662 86.4297L78.6074 87.1367C77.1594 90.9386 74.8214 94.6924 71.1455 97.5244L70.7861 97.7949C66.9579 100.615 62.4535 101.917 57.71 101.996L57.25 102C30.7178 102 14.036 92.9877 7.67969 85.8213L7.6582 85.7979L7.6377 85.7744L7.40039 85.5L7.34277 85.4336L7.28809 85.3643L7.12695 85.1641L7.08594 85.1133L7.0459 85.0615C3.83464 80.8511 4.45663 74.8225 8.54102 71.3662V71.3652L8.92969 71.0527C12.8711 68.0369 18.4156 68.3905 21.9473 71.8076L22.2939 72.1592L22.335 72.2021L22.374 72.2471L22.5391 72.4316L22.7266 72.6406C24.5529 74.5436 35.0599 81.9999 57.25 82L57.499 81.9961C58.0506 81.9786 58.3946 81.9043 58.5879 81.8457C58.7938 81.7832 58.8845 81.7223 58.9238 81.6934L59.0381 81.5918C59.2117 81.4153 59.5489 80.9824 59.916 80.0186C60.9618 77.2724 61.4003 72.4727 60.7422 65.6465L60.5957 64.2539C59.1839 51.8301 54.7813 36.8784 50.3936 25H15C9.47763 24.9998 5 20.523 5 15C5 9.47701 9.47763 5.00023 15 5H99.5Z" fill="#FFEA00" stroke="black" stroke-width="10" stroke-linecap="round"/>
</svg>
