<svg width="284" height="119" viewBox="0 0 284 119" fill="none" xmlns="http://www.w3.org/2000/svg">
<path d="M199.14 25.4922L203.653 69.6953V39.8018H228.158V89.4092H279V114H203.653V105.797L202.333 105.934L187.903 107.424L182.924 107.938L182.415 102.958L179.718 76.5508L175.614 81.8496L172.311 86.1133L168.31 82.498L157.154 72.418V106.705H132.648V17.1855L141 24.7324L169.131 50.1504L190.213 22.9375L197.87 13.0547L199.14 25.4922ZM29.5059 38.3428V63.1465H44.6143V38.3428H69.1191V112.541H44.6143V87.7373H29.5059V112.541H5V38.3428H29.5059ZM129.594 31.0479V55.6387H113.844V112.541H89.3389V55.6387H73.5908V31.0479H129.594Z" fill="#FFEA00" stroke="black" stroke-width="10"/>
</svg>
