<svg width="228" height="102" viewBox="0 0 228 102" fill="none" xmlns="http://www.w3.org/2000/svg">
<mask id="path-1-outside-1_12_38" maskUnits="userSpaceOnUse" x="0" y="-1" width="228" height="104" fill="black">
<rect fill="white" y="-1" width="228" height="104"/>
<path d="M37.6981 12.63C49.8457 8.32251 63.177 9.88711 72.5644 13.1675L73.4603 13.49L73.7392 13.6014C76.5763 14.8234 78.0057 18.1155 76.9417 21.102C75.8773 24.0887 72.7091 25.6749 69.7652 24.7518L69.4809 24.6543L68.754 24.3929C61.144 21.7393 50.5761 20.6402 41.5199 23.8515C32.7045 26.9774 24.598 34.4044 22.1164 50.8624C20.8781 59.0751 22.1953 64.5497 24.4964 68.3084C26.8295 72.1191 30.6355 74.9187 35.7122 76.8578C46.1151 80.8309 60.1251 80.534 70.8165 79.3002L71.1151 79.2739C74.1886 79.0794 76.9044 81.3773 77.2547 84.5347C77.616 87.7945 75.3194 90.7363 72.1247 91.1049L71.0742 91.2225C60.0654 92.4121 44.3355 92.8359 31.6305 87.9834C24.9485 85.4313 18.7021 81.2664 14.6222 74.6025C10.5107 67.8866 9.05295 59.3755 10.6087 49.0565C13.7157 28.4504 24.6257 17.2654 37.6981 12.63Z"/>
<path d="M109.823 12.7058C121.028 10.6158 134.555 11.0275 144.027 11.6887L145.865 11.8241L146.164 11.8542C149.219 12.2488 151.467 15.0243 151.233 18.1932C150.999 21.3621 148.369 23.7624 145.29 23.6852L144.991 23.6698L143.186 23.5375C133.949 22.8958 121.643 22.5773 111.916 24.3914C106.66 25.3717 102.909 26.8483 100.757 28.6003C99.7586 29.4136 99.2249 30.1882 98.9458 30.9082C98.6737 31.6101 98.5045 32.6141 98.7684 34.1326L98.8351 34.4845C99.1877 36.1869 99.8036 37.0356 100.378 37.5565C101.081 38.1928 102.236 38.7945 104.188 39.2008C108.432 40.0842 113.819 39.6459 120.654 39.4305C126.761 39.238 134.375 39.2138 140.46 42.3385C143.716 44.0108 146.543 46.5711 148.486 50.2792C150.385 53.9046 151.249 58.2616 151.249 63.2858C151.249 67.965 149.991 72.5038 147.201 76.4463C144.429 80.3637 140.389 83.3503 135.349 85.3894C125.749 89.2739 111.971 89.9602 93.7946 86.8689L92.0217 86.558L91.7283 86.4969C88.727 85.793 86.7619 82.8029 87.3048 79.6738C87.8479 76.5445 90.7001 74.4238 93.7559 74.8144L94.0515 74.8608L95.7396 75.1563C112.986 78.0858 124.304 77.079 131.058 74.3465C134.459 72.9702 136.532 71.2295 137.762 69.4917C138.974 67.7791 139.607 65.7343 139.607 63.2858C139.607 59.5984 138.967 57.31 138.218 55.8803C137.513 54.5337 136.547 53.6288 135.225 52.9499C132.153 51.3725 127.469 51.1005 121.013 51.304C115.284 51.4846 107.84 52.0856 101.86 50.8407C98.7003 50.1828 95.3948 48.9281 92.6485 46.44C89.9017 43.9513 88.1474 40.6216 87.3768 36.5998L87.3048 36.2077C86.7152 32.8163 86.9527 29.5474 88.1196 26.5376C89.2796 23.5459 91.2182 21.1687 93.4952 19.3146C97.8955 15.7317 103.915 13.8076 109.823 12.7058Z"/>
<path d="M176.573 12.7058C187.779 10.6158 201.305 11.0275 210.778 11.6887L212.616 11.8241L212.915 11.8542C215.97 12.2488 218.217 15.0243 217.983 18.1932C217.749 21.3621 215.119 23.7624 212.041 23.6852L211.741 23.6698L209.937 23.5375C200.7 22.8958 188.393 22.5773 178.667 24.3914C173.411 25.3717 169.66 26.8483 167.508 28.6003C166.509 29.4136 165.976 30.1882 165.696 30.9082C165.424 31.6101 165.255 32.6141 165.519 34.1326L165.586 34.4845C165.938 36.1869 166.554 37.0356 167.129 37.5565C167.831 38.1928 168.987 38.7945 170.939 39.2008C175.182 40.0842 180.569 39.6459 187.404 39.4305C193.512 39.238 201.126 39.2138 207.21 42.3385C210.466 44.0108 213.294 46.5711 215.236 50.2792C217.136 53.9046 218 58.2616 218 63.2858C218 67.965 216.742 72.5038 213.952 76.4463C211.179 80.3637 207.139 83.3503 202.1 85.3894C192.499 89.2739 178.721 89.9602 160.545 86.8689L158.772 86.558L158.479 86.4969C155.478 85.793 153.512 82.8029 154.055 79.6738C154.598 76.5445 157.451 74.4238 160.507 74.8144L160.802 74.8608L162.49 75.1563C179.737 78.0858 191.055 77.079 197.808 74.3465C201.209 72.9702 203.283 71.2295 204.512 69.4917C205.724 67.7791 206.357 65.7343 206.357 63.2858C206.357 59.5984 205.718 57.31 204.969 55.8803C204.263 54.5337 203.297 53.6288 201.976 52.9499C198.904 51.3725 194.22 51.1005 187.763 51.304C182.034 51.4846 174.59 52.0856 168.611 50.8407C165.451 50.1828 162.145 48.9281 159.399 46.44C156.652 43.9513 154.898 40.6216 154.127 36.5998L154.055 36.2077C153.466 32.8163 153.703 29.5474 154.87 26.5376C156.03 23.5459 157.969 21.1687 160.246 19.3146C164.646 15.7317 170.666 13.8076 176.573 12.7058Z"/>
</mask>
<path d="M37.6981 12.63C49.8457 8.32251 63.177 9.88711 72.5644 13.1675L73.4603 13.49L73.7392 13.6014C76.5763 14.8234 78.0057 18.1155 76.9417 21.102C75.8773 24.0887 72.7091 25.6749 69.7652 24.7518L69.4809 24.6543L68.754 24.3929C61.144 21.7393 50.5761 20.6402 41.5199 23.8515C32.7045 26.9774 24.598 34.4044 22.1164 50.8624C20.8781 59.0751 22.1953 64.5497 24.4964 68.3084C26.8295 72.1191 30.6355 74.9187 35.7122 76.8578C46.1151 80.8309 60.1251 80.534 70.8165 79.3002L71.1151 79.2739C74.1886 79.0794 76.9044 81.3773 77.2547 84.5347C77.616 87.7945 75.3194 90.7363 72.1247 91.1049L71.0742 91.2225C60.0654 92.4121 44.3355 92.8359 31.6305 87.9834C24.9485 85.4313 18.7021 81.2664 14.6222 74.6025C10.5107 67.8866 9.05295 59.3755 10.6087 49.0565C13.7157 28.4504 24.6257 17.2654 37.6981 12.63Z" fill="#FFEA00"/>
<path d="M109.823 12.7058C121.028 10.6158 134.555 11.0275 144.027 11.6887L145.865 11.8241L146.164 11.8542C149.219 12.2488 151.467 15.0243 151.233 18.1932C150.999 21.3621 148.369 23.7624 145.29 23.6852L144.991 23.6698L143.186 23.5375C133.949 22.8958 121.643 22.5773 111.916 24.3914C106.66 25.3717 102.909 26.8483 100.757 28.6003C99.7586 29.4136 99.2249 30.1882 98.9458 30.9082C98.6737 31.6101 98.5045 32.6141 98.7684 34.1326L98.8351 34.4845C99.1877 36.1869 99.8036 37.0356 100.378 37.5565C101.081 38.1928 102.236 38.7945 104.188 39.2008C108.432 40.0842 113.819 39.6459 120.654 39.4305C126.761 39.238 134.375 39.2138 140.46 42.3385C143.716 44.0108 146.543 46.5711 148.486 50.2792C150.385 53.9046 151.249 58.2616 151.249 63.2858C151.249 67.965 149.991 72.5038 147.201 76.4463C144.429 80.3637 140.389 83.3503 135.349 85.3894C125.749 89.2739 111.971 89.9602 93.7946 86.8689L92.0217 86.558L91.7283 86.4969C88.727 85.793 86.7619 82.8029 87.3048 79.6738C87.8479 76.5445 90.7001 74.4238 93.7559 74.8144L94.0515 74.8608L95.7396 75.1563C112.986 78.0858 124.304 77.079 131.058 74.3465C134.459 72.9702 136.532 71.2295 137.762 69.4917C138.974 67.7791 139.607 65.7343 139.607 63.2858C139.607 59.5984 138.967 57.31 138.218 55.8803C137.513 54.5337 136.547 53.6288 135.225 52.9499C132.153 51.3725 127.469 51.1005 121.013 51.304C115.284 51.4846 107.84 52.0856 101.86 50.8407C98.7003 50.1828 95.3948 48.9281 92.6485 46.44C89.9017 43.9513 88.1474 40.6216 87.3768 36.5998L87.3048 36.2077C86.7152 32.8163 86.9527 29.5474 88.1196 26.5376C89.2796 23.5459 91.2182 21.1687 93.4952 19.3146C97.8955 15.7317 103.915 13.8076 109.823 12.7058Z" fill="#FFEA00"/>
<path d="M176.573 12.7058C187.779 10.6158 201.305 11.0275 210.778 11.6887L212.616 11.8241L212.915 11.8542C215.97 12.2488 218.217 15.0243 217.983 18.1932C217.749 21.3621 215.119 23.7624 212.041 23.6852L211.741 23.6698L209.937 23.5375C200.7 22.8958 188.393 22.5773 178.667 24.3914C173.411 25.3717 169.66 26.8483 167.508 28.6003C166.509 29.4136 165.976 30.1882 165.696 30.9082C165.424 31.6101 165.255 32.6141 165.519 34.1326L165.586 34.4845C165.938 36.1869 166.554 37.0356 167.129 37.5565C167.831 38.1928 168.987 38.7945 170.939 39.2008C175.182 40.0842 180.569 39.6459 187.404 39.4305C193.512 39.238 201.126 39.2138 207.21 42.3385C210.466 44.0108 213.294 46.5711 215.236 50.2792C217.136 53.9046 218 58.2616 218 63.2858C218 67.965 216.742 72.5038 213.952 76.4463C211.179 80.3637 207.139 83.3503 202.1 85.3894C192.499 89.2739 178.721 89.9602 160.545 86.8689L158.772 86.558L158.479 86.4969C155.478 85.793 153.512 82.8029 154.055 79.6738C154.598 76.5445 157.451 74.4238 160.507 74.8144L160.802 74.8608L162.49 75.1563C179.737 78.0858 191.055 77.079 197.808 74.3465C201.209 72.9702 203.283 71.2295 204.512 69.4917C205.724 67.7791 206.357 65.7343 206.357 63.2858C206.357 59.5984 205.718 57.31 204.969 55.8803C204.263 54.5337 203.297 53.6288 201.976 52.9499C198.904 51.3725 194.22 51.1005 187.763 51.304C182.034 51.4846 174.59 52.0856 168.611 50.8407C165.451 50.1828 162.145 48.9281 159.399 46.44C156.652 43.9513 154.898 40.6216 154.127 36.5998L154.055 36.2077C153.466 32.8163 153.703 29.5474 154.87 26.5376C156.03 23.5459 157.969 21.1687 160.246 19.3146C164.646 15.7317 170.666 13.8076 176.573 12.7058Z" fill="#FFEA00"/>
<path d="M37.6981 12.63C49.8457 8.32251 63.177 9.88711 72.5644 13.1675L73.4603 13.49L73.7392 13.6014C76.5763 14.8234 78.0057 18.1155 76.9417 21.102C75.8773 24.0887 72.7091 25.6749 69.7652 24.7518L69.4809 24.6543L68.754 24.3929C61.144 21.7393 50.5761 20.6402 41.5199 23.8515C32.7045 26.9774 24.598 34.4044 22.1164 50.8624C20.8781 59.0751 22.1953 64.5497 24.4964 68.3084C26.8295 72.1191 30.6355 74.9187 35.7122 76.8578C46.1151 80.8309 60.1251 80.534 70.8165 79.3002L71.1151 79.2739C74.1886 79.0794 76.9044 81.3773 77.2547 84.5347C77.616 87.7945 75.3194 90.7363 72.1247 91.1049L71.0742 91.2225C60.0654 92.4121 44.3355 92.8359 31.6305 87.9834C24.9485 85.4313 18.7021 81.2664 14.6222 74.6025C10.5107 67.8866 9.05295 59.3755 10.6087 49.0565C13.7157 28.4504 24.6257 17.2654 37.6981 12.63Z" stroke="black" stroke-width="20" stroke-linecap="round" mask="url(#path-1-outside-1_12_38)"/>
<path d="M109.823 12.7058C121.028 10.6158 134.555 11.0275 144.027 11.6887L145.865 11.8241L146.164 11.8542C149.219 12.2488 151.467 15.0243 151.233 18.1932C150.999 21.3621 148.369 23.7624 145.29 23.6852L144.991 23.6698L143.186 23.5375C133.949 22.8958 121.643 22.5773 111.916 24.3914C106.66 25.3717 102.909 26.8483 100.757 28.6003C99.7586 29.4136 99.2249 30.1882 98.9458 30.9082C98.6737 31.6101 98.5045 32.6141 98.7684 34.1326L98.8351 34.4845C99.1877 36.1869 99.8036 37.0356 100.378 37.5565C101.081 38.1928 102.236 38.7945 104.188 39.2008C108.432 40.0842 113.819 39.6459 120.654 39.4305C126.761 39.238 134.375 39.2138 140.46 42.3385C143.716 44.0108 146.543 46.5711 148.486 50.2792C150.385 53.9046 151.249 58.2616 151.249 63.2858C151.249 67.965 149.991 72.5038 147.201 76.4463C144.429 80.3637 140.389 83.3503 135.349 85.3894C125.749 89.2739 111.971 89.9602 93.7946 86.8689L92.0217 86.558L91.7283 86.4969C88.727 85.793 86.7619 82.8029 87.3048 79.6738C87.8479 76.5445 90.7001 74.4238 93.7559 74.8144L94.0515 74.8608L95.7396 75.1563C112.986 78.0858 124.304 77.079 131.058 74.3465C134.459 72.9702 136.532 71.2295 137.762 69.4917C138.974 67.7791 139.607 65.7343 139.607 63.2858C139.607 59.5984 138.967 57.31 138.218 55.8803C137.513 54.5337 136.547 53.6288 135.225 52.9499C132.153 51.3725 127.469 51.1005 121.013 51.304C115.284 51.4846 107.84 52.0856 101.86 50.8407C98.7003 50.1828 95.3948 48.9281 92.6485 46.44C89.9017 43.9513 88.1474 40.6216 87.3768 36.5998L87.3048 36.2077C86.7152 32.8163 86.9527 29.5474 88.1196 26.5376C89.2796 23.5459 91.2182 21.1687 93.4952 19.3146C97.8955 15.7317 103.915 13.8076 109.823 12.7058Z" stroke="black" stroke-width="20" stroke-linecap="round" mask="url(#path-1-outside-1_12_38)"/>
<path d="M176.573 12.7058C187.779 10.6158 201.305 11.0275 210.778 11.6887L212.616 11.8241L212.915 11.8542C215.97 12.2488 218.217 15.0243 217.983 18.1932C217.749 21.3621 215.119 23.7624 212.041 23.6852L211.741 23.6698L209.937 23.5375C200.7 22.8958 188.393 22.5773 178.667 24.3914C173.411 25.3717 169.66 26.8483 167.508 28.6003C166.509 29.4136 165.976 30.1882 165.696 30.9082C165.424 31.6101 165.255 32.6141 165.519 34.1326L165.586 34.4845C165.938 36.1869 166.554 37.0356 167.129 37.5565C167.831 38.1928 168.987 38.7945 170.939 39.2008C175.182 40.0842 180.569 39.6459 187.404 39.4305C193.512 39.238 201.126 39.2138 207.21 42.3385C210.466 44.0108 213.294 46.5711 215.236 50.2792C217.136 53.9046 218 58.2616 218 63.2858C218 67.965 216.742 72.5038 213.952 76.4463C211.179 80.3637 207.139 83.3503 202.1 85.3894C192.499 89.2739 178.721 89.9602 160.545 86.8689L158.772 86.558L158.479 86.4969C155.478 85.793 153.512 82.8029 154.055 79.6738C154.598 76.5445 157.451 74.4238 160.507 74.8144L160.802 74.8608L162.49 75.1563C179.737 78.0858 191.055 77.079 197.808 74.3465C201.209 72.9702 203.283 71.2295 204.512 69.4917C205.724 67.7791 206.357 65.7343 206.357 63.2858C206.357 59.5984 205.718 57.31 204.969 55.8803C204.263 54.5337 203.297 53.6288 201.976 52.9499C198.904 51.3725 194.22 51.1005 187.763 51.304C182.034 51.4846 174.59 52.0856 168.611 50.8407C165.451 50.1828 162.145 48.9281 159.399 46.44C156.652 43.9513 154.898 40.6216 154.127 36.5998L154.055 36.2077C153.466 32.8163 153.703 29.5474 154.87 26.5376C156.03 23.5459 157.969 21.1687 160.246 19.3146C164.646 15.7317 170.666 13.8076 176.573 12.7058Z" stroke="black" stroke-width="20" stroke-linecap="round" mask="url(#path-1-outside-1_12_38)"/>
</svg>
