<svg width="164" height="174" viewBox="0 0 164 174" fill="none" xmlns="http://www.w3.org/2000/svg">
<path d="M8.5001 67.5C-8.2999 29.5 44.1668 11 72.5001 6.5C88.3334 14.1667 124.3 34.6 141.5 55C163 80.5 160.867 83.2091 141.5 124.5C115 181 72 165.5 50 156.5C32.4 149.3 52.1667 143.833 59.5 139.5C49.5 131.333 25.3001 105.5 8.5001 67.5Z" fill="#FFFC3B"/>
<path d="M74.9999 5C45.1666 7.33333 -9.70007 22.8 9.49994 66C28.6999 109.2 52.8333 134 62.5 141C53.6667 139.667 37.6 139.8 44 151C52 165 77 170 99 167.5C121 165 143 137.5 146.5 126C149.3 116.8 156 82.1667 159 66" stroke="black" stroke-width="10" stroke-linecap="round"/>
</svg>
