<svg width="139" height="60" viewBox="0 0 139 60" fill="none" xmlns="http://www.w3.org/2000/svg">
<path d="M49.4999 19.0001H65.4999H78.5C82 15.0001 92 6.40009 104 4.00008C119 1.00006 134.5 19.0001 135 28.5001C135.5 38.0001 126.5 47.0001 119 53.0001C113 57.8001 96.5 55.0001 89 53.0001C81.1666 51.1667 62.2999 48.6001 49.4999 53.0001C33.4999 58.5001 13.4999 49.0001 5.99991 40.5001C-1.50009 32.0001 17.9999 9.00009 27.9999 7.00009C35.9999 5.40009 45.6666 14.3334 49.4999 19.0001Z" fill="white" stroke="black" stroke-width="7" stroke-linecap="round"/>
<path d="M7.5 33C7.5 33 16.5 40.5938 30 33C43.5 25.4063 46 38.4999 60.5 33.0001C67.263 31.6475 74.1359 29.3392 81.5 29C86.1156 31.154 101 33.0001 110 29C119 24.9999 132.5 33 132.5 33" stroke="black" stroke-width="7" stroke-linecap="round"/>
<path d="M30.5 7V52.5M49.5 19.5V52.5M80 19.5V50.5M110 7V54.5" stroke="black" stroke-width="7" stroke-linecap="round"/>
</svg>
