<svg width="204" height="178" viewBox="0 0 204 178" fill="none" xmlns="http://www.w3.org/2000/svg">
<path d="M126.5 24C85.7001 -6.39999 28.5001 11.3333 5.00011 24C5.00011 24 -4.09847 72.9297 5.00011 102C14.4515 132.198 52.0001 168 52.0001 168C66.6668 165.667 98.0001 155 118.5 153C135.882 151.304 148.5 198 190 156C219.656 125.987 177.5 62 126.5 24Z" fill="#FFFC3B"/>
<path d="M5 24.4999C24.3333 13.6666 70.9 -3.90006 102.5 12.4999C142 32.9999 231 118.5 186.5 157C150.9 187.8 139.667 164.667 126.5 150.5L50.5 170" stroke="black" stroke-width="10" stroke-linecap="round"/>
</svg>
