<svg width="28" height="28" viewBox="0 0 28 28" fill="none" xmlns="http://www.w3.org/2000/svg">
<path fill-rule="evenodd" clip-rule="evenodd" d="M13.3 3.85C8.08091 3.85 3.85 8.08091 3.85 13.3C3.85 18.5191 8.08091 22.75 13.3 22.75C18.5191 22.75 22.75 18.5191 22.75 13.3C22.75 8.08091 18.5191 3.85 13.3 3.85ZM1.75 13.3C1.75 6.92111 6.92111 1.75 13.3 1.75C19.6789 1.75 24.85 6.92111 24.85 13.3C24.85 19.6789 19.6789 24.85 13.3 24.85C6.92111 24.85 1.75 19.6789 1.75 13.3Z" fill="#47494D"/>
<path fill-rule="evenodd" clip-rule="evenodd" d="M12.25 7C12.25 6.4201 12.7201 5.95 13.3 5.95C17.3593 5.95 20.65 9.24071 20.65 13.3C20.65 13.8799 20.1799 14.35 19.6 14.35C19.0201 14.35 18.55 13.8799 18.55 13.3C18.55 10.4005 16.1995 8.05 13.3 8.05C12.7201 8.05 12.25 7.5799 12.25 7Z" fill="#47494D"/>
<path fill-rule="evenodd" clip-rule="evenodd" d="M20.2575 20.2575C20.6676 19.8475 21.3324 19.8475 21.7425 20.2575L25.9425 24.4575C26.3525 24.8676 26.3525 25.5324 25.9425 25.9425C25.5324 26.3525 24.8676 26.3525 24.4575 25.9425L20.2575 21.7425C19.8475 21.3324 19.8475 20.6676 20.2575 20.2575Z" fill="#47494D"/>
</svg>
