<svg width="160" height="26" viewBox="0 0 160 26" fill="none" xmlns="http://www.w3.org/2000/svg">
<path d="M36.5862 10.0482C35.7941 10.0482 35.1525 10.6676 35.1525 11.4324C35.1525 14.82 32.2931 17.5806 28.7842 17.5806C25.2753 17.5806 22.4159 14.82 22.4159 11.4324C22.4159 10.6676 21.7743 10.0482 20.9822 10.0482C20.1902 10.0482 19.5486 10.6676 19.5486 11.4324C19.5486 14.82 16.6892 17.5806 13.1803 17.5806C9.67134 17.5806 6.82778 14.82 6.82778 11.4324C6.82778 10.6676 6.18619 10.0482 5.39411 10.0482C4.60203 10.0482 3.96045 10.6676 3.96045 11.4324C3.96045 16.3494 8.10302 20.3488 13.1961 20.3488C16.4753 20.3488 19.3585 18.6894 20.9981 16.1965C22.6377 18.6894 25.5208 20.3488 28.8001 20.3488C33.8931 20.3488 38.0357 16.3494 38.0357 11.4324C38.0357 10.6676 37.3941 10.0482 36.602 10.0482H36.5862Z" fill="#2E6FF2"/>
<path d="M72.9507 20.3412C72.1586 20.3412 71.517 19.7218 71.517 18.9571C71.517 15.5694 68.6576 12.8088 65.1487 12.8088C61.6398 12.8088 58.7804 15.5694 58.7804 18.9571C58.7804 19.7218 58.1388 20.3412 57.3467 20.3412C56.5547 20.3412 55.9131 19.7218 55.9131 18.9571C55.9131 14.04 60.0557 10.0406 65.1487 10.0406C70.2418 10.0406 74.3844 14.04 74.3844 18.9571C74.3844 19.7218 73.7428 20.3412 72.9507 20.3412Z" fill="#2E6FF2"/>
<path d="M94.6615 20.3412C94.2971 20.3412 93.9248 20.2035 93.6476 19.9359L85.8456 12.4035C85.2832 11.8606 85.2832 10.9888 85.8456 10.4459C86.408 9.90294 87.311 9.90294 87.8733 10.4459L94.6615 16.9994L101.45 10.4459C102.012 9.90294 102.915 9.90294 103.477 10.4459C104.04 10.9888 104.04 11.8606 103.477 12.4035L95.6753 19.9359C95.3981 20.2035 95.0258 20.3412 94.6615 20.3412Z" fill="#2E6FF2"/>
<path d="M47.0893 20.6165C46.3289 20.6165 45.5606 20.4712 44.8319 20.1882C43.3507 19.6071 42.1863 18.4982 41.5606 17.0759C40.9348 15.6535 40.9269 14.0782 41.5289 12.6406C42.1309 11.2106 43.2794 10.0865 44.7527 9.48235C46.2259 8.87824 47.8576 8.87059 49.3467 9.45177C50.8279 10.0329 51.9923 11.1418 52.618 12.5641C52.9111 13.2294 52.5863 14.0018 51.8972 14.2847L44.8636 17.1524C45.1487 17.4047 45.4814 17.6112 45.8537 17.7565C46.6695 18.0776 47.5566 18.07 48.3645 17.7412C49.1091 17.4353 49.7111 16.8771 50.0596 16.1735C50.3764 15.5159 51.1844 15.2406 51.8655 15.5465C52.5467 15.8524 52.8319 16.6324 52.515 17.29C51.8893 18.5824 50.7883 19.5994 49.4259 20.1576C48.6735 20.4635 47.8814 20.6165 47.0893 20.6165ZM47.0893 11.6465C46.6537 11.6465 46.2259 11.7306 45.8141 11.8988C45.0061 12.2276 44.3804 12.8394 44.0477 13.6271C43.8972 13.9865 43.818 14.3612 43.8101 14.7359L49.323 12.4876C49.0378 12.2353 48.7051 12.0288 48.3329 11.8835C47.9368 11.7306 47.517 11.6465 47.0972 11.6465H47.0893Z" fill="#2E6FF2"/>
<path d="M80.0396 20.3412C79.2475 20.3412 78.606 19.7218 78.606 18.9571V11.2106C78.606 10.4459 79.2475 9.82648 80.0396 9.82648C80.8317 9.82648 81.4733 10.4459 81.4733 11.2106V18.9647C81.4733 19.7294 80.8317 20.3488 80.0396 20.3488V20.3412Z" fill="#2E6FF2"/>
<path d="M80.0397 8.32C81.1066 8.32 81.9724 7.48461 81.9724 6.45412C81.9724 5.42362 81.1066 4.58824 80.0397 4.58824C78.9722 4.58824 78.1069 5.42362 78.1069 6.45412C78.1069 7.48461 78.9722 8.32 80.0397 8.32Z" fill="#2E6FF2"/>
<path fill-rule="evenodd" clip-rule="evenodd" d="M113.324 8.92564C116.559 8.92564 118.926 11.4113 118.926 14.6273C118.926 17.8433 116.559 20.3289 113.324 20.3289C110.089 20.3289 107.723 17.8433 107.723 14.6273C107.723 11.4113 110.089 8.92564 113.324 8.92564ZM113.324 10.2532C110.866 10.2532 109.155 12.1071 109.155 14.6273C109.155 17.1474 110.866 19.0014 113.324 19.0014C115.783 19.0014 117.494 17.1474 117.494 14.6273C117.494 12.1071 115.783 10.2532 113.324 10.2532Z" fill="#47494D"/>
<path fill-rule="evenodd" clip-rule="evenodd" d="M126.816 8.92564C130.05 8.92564 132.417 11.4113 132.417 14.6273C132.417 17.8433 130.05 20.3289 126.816 20.3289C123.581 20.3289 121.214 17.8433 121.214 14.6273C121.214 11.4113 123.581 8.92564 126.816 8.92564ZM126.816 10.2532C124.356 10.2532 122.646 12.1071 122.646 14.6273C122.646 17.1474 124.356 19.0014 126.816 19.0014C129.274 19.0014 130.985 17.1474 130.985 14.6273C130.985 12.1071 129.274 10.2532 126.816 10.2532Z" fill="#47494D"/>
<path d="M143.407 20.072L138.972 14.8097L136.517 17.2123V20.072H135.085V4.52093H136.517V15.3148L142.705 9.27343L142.798 9.18258H144.755L139.972 13.8398L145.232 20.072H143.407Z" fill="#47494D"/>
<path d="M155.365 12.2169H153.936L153.921 11.926C153.9 11.5141 153.592 11.0964 152.977 10.7678C152.368 10.4424 151.506 10.2348 150.512 10.2348C149.547 10.2348 148.731 10.4419 148.169 10.7635C147.603 11.0861 147.331 11.4967 147.331 11.911C147.331 12.1685 147.367 12.3862 147.455 12.5761C147.541 12.7627 147.685 12.9403 147.929 13.1067C148.431 13.4499 149.342 13.7372 150.966 13.9197C152.621 14.1054 153.782 14.4577 154.537 14.9825C155.313 15.5228 155.638 16.2326 155.638 17.0499C155.638 18.1116 155.049 18.944 154.138 19.4974C153.235 20.0458 152.007 20.3289 150.664 20.3289C147.649 20.3289 145.887 18.9343 145.691 17.2305L145.652 16.8908H147.106L147.138 17.1623C147.227 17.9136 148.139 19.0198 150.721 19.0198C151.762 19.0198 152.653 18.7985 153.271 18.4395C153.887 18.0818 154.206 17.6084 154.206 17.0866C154.206 16.83 154.158 16.6235 154.059 16.4484C153.959 16.2738 153.796 16.1078 153.526 15.9519C152.972 15.6316 152.017 15.3799 150.434 15.1877C148.808 14.9927 147.678 14.6352 146.947 14.0973C146.195 13.5429 145.899 12.8184 145.899 11.9845C145.899 11.0257 146.428 10.2487 147.273 9.72445C148.109 9.20468 149.262 8.92564 150.569 8.92564C151.899 8.92564 153.064 9.2345 153.913 9.75565C154.762 10.2764 155.319 11.0274 155.353 11.8997L155.365 12.2169Z" fill="#47494D"/>
</svg>
